<?xml version="1.0" encoding="utf-8"?>
<!-- Generator: Adobe Illustrator 18.1.0, SVG Export Plug-In . SVG Version: 6.00 Build 0)  -->
<svg version="1.1" id="Layer_1" xmlns="http://www.w3.org/2000/svg" xmlns:xlink="http://www.w3.org/1999/xlink" x="0px" y="0px"
	 viewBox="-223 25 512 512" enable-background="new -223 25 512 512" xml:space="preserve">
<path d="M-95,121l-64-64h-32v32l64,64L-95,121z M-63,25h32v64h-32V25z M65,185h64v32H65V185z M97,89V57H65L1,121l32,32L97,89z
	 M-223,185h64v32h-64V185z M-63,313h32v64h-32V313z M-191,313v32h32l64-64l-32-32L-191,313z M282,466L-36.1,147.9
	c-9.3-9.3-24.6-9.3-33.9,0l-30.1,30.1c-9.3,9.3-9.3,24.6,0,33.9L218,530c9.3,9.3,24.6,9.3,33.9,0l30.1-30.1
	C291.3,490.6,291.3,475.3,282,466z M17,297l-96-96l32-32l96,96L17,297z"/>
</svg>
