<?xml version="1.0" encoding="utf-8"?>
<!-- Generator: Adobe Illustrator 18.1.1, SVG Export Plug-In . SVG Version: 6.00 Build 0)  -->
<svg version="1.1" id="Layer_1" xmlns="http://www.w3.org/2000/svg" xmlns:xlink="http://www.w3.org/1999/xlink" x="0px" y="0px"
	 viewBox="-667 925 200 200" enable-background="new -667 925 200 200" xml:space="preserve">
<rect x="-632" y="964" fill="none" width="129" height="120"/>
<g>
	<g>
		<path fill="#D2D2D7" d="M-617.5,1076.5c1.1,1.5,3.5,1.3,5.5-0.4c4.4-3.5,8.7-6.3,16.8-6.3c15.3,0,27.5,9.6,45.8,9.6
			c14,0.2,22.9-5.2,27.9-12.4c3.9-5.5,5.7-13.1,5.7-19c0-8.3-4.8-13.8-13.1-13.8c-7.9,0-11.4,4.1-11.8,10c-0.2,2.4-0.2,7-1.7,9.2
			c-1.5,2.4-4.2,3.1-7.6,3.1c-8.7,0-19-7-30.5-7h-1.7l74.4-60.2c1.3-0.9,1.8-3.1,0.4-4.2l-11.5-13.5c-2-1.8-3.5-1.7-5.5,0
			c-3.9,3.1-7.6,6.3-15.5,6.3c-12.9,0-26.8-8.1-44.9-8.1c-12.9,0-20.1,4.8-25.1,10c-4.8,5.2-8.1,13.5-8.1,21.4
			c0,8.1,4.8,13.3,12.7,13.3c7.2,0,11.4-4.1,11.4-9.8c0-3.3,0.2-6.3,1.7-8.5c1.3-2.2,4.6-4.2,9.2-4.2c7.2,0,20.9,5,29.4,5h0.6
			l-75.3,59.8c-1.5,1.1-1.5,3.7-0.5,5L-617.5,1076.5z M-667,1025c0-55.1,44.8-100,100-100c55.1,0,100,44.8,100,100
			c0,55.1-44.9,100-100,100C-622.2,1125-667,1080.2-667,1025z"/>
	</g>
</g>
</svg>
