<?xml version="1.0" encoding="utf-8"?>
<!-- Generator: Adobe Illustrator 18.1.1, SVG Export Plug-In . SVG Version: 6.00 Build 0)  -->
<svg version="1.1" id="Layer_1" xmlns="http://www.w3.org/2000/svg" xmlns:xlink="http://www.w3.org/1999/xlink" x="0px" y="0px"
	 viewBox="0 0 154.8 34.8" enable-background="new 0 0 154.8 34.8" xml:space="preserve">
<g>
	<g>
		<path fill="#FFFFFF" d="M14.3,27.4v3.1c0,0.4-0.3,0.8-0.8,0.8H4.3c-0.4,0-0.8-0.3-0.8-0.8v-9.3c0-0.4,0.3-0.8,0.8-0.8h8.3
			c1.3-0.9,2.8-2,4.4-3.1c-0.4-0.3-0.8-0.4-1.3-0.4H2.1C1,16.9,0,17.8,0,19v13.5c0,1.2,1,2.1,2.1,2.1h13.5c1.2,0,2.1-1,2.1-2.1v-8.3
			L14.3,27.4z"/>
		<path fill="#FFFFFF" d="M8.9,14.5c-4,0-7.3-3.3-7.3-7.3c0-4,3.3-7.3,7.3-7.3c4,0,7.3,3.3,7.3,7.3C16.2,11.2,12.9,14.5,8.9,14.5z
			 M8.9,3.1C6.6,3.1,4.7,5,4.7,7.3c0,2.3,1.9,4.2,4.2,4.2c2.3,0,4.2-1.9,4.2-4.2C13.1,5,11.2,3.1,8.9,3.1z"/>
		<path fill-rule="evenodd" clip-rule="evenodd" fill="#FFFFFF" d="M5.6,23.2c0.1-0.2,0.2-0.6,0.9-1c0.1,0,0.2,0,0.2,0l3.5,2.3
			c0,0,0.2,0.1,0.3,0c1.2-0.9,10.8-7.5,11.3-7.7c0.5-0.2,1.5-0.2,1.5,0c0,0.2-13,11.6-13.2,11.7c-0.2,0.1-0.3,0.1-0.4,0
			c-0.1-0.1-3.6-4.5-4-5.1C5.6,23.4,5.5,23.3,5.6,23.2z"/>
	</g>
	<g>
		<path fill="#FFFFFF" d="M28.5,25.9c0-5.5,4.2-9,9.2-9c3.6,0,5.9,1.8,7.2,3.9l-3.1,1.7c-0.8-1.2-2.3-2.3-4.1-2.3
			c-3.1,0-5.4,2.4-5.4,5.7c0,3.3,2.3,5.7,5.4,5.7c1.5,0,3-0.7,3.7-1.3v-2.1h-4.6v-3.2h8.3v6.6c-1.8,2-4.2,3.3-7.4,3.3
			C32.6,34.8,28.5,31.3,28.5,25.9z"/>
		<path fill="#FFFFFF" d="M46.7,28.2c0-3.6,2.7-6.6,6.5-6.6c3.7,0,6.3,2.8,6.3,6.9v0.7h-9.3c0.2,1.6,1.5,2.9,3.6,2.9
			c1.1,0,2.5-0.5,3.3-1.2l1.5,2.1c-1.2,1.1-3.2,1.7-5.2,1.7C49.6,34.8,46.7,32.2,46.7,28.2z M53.2,24.3c-2.1,0-2.9,1.5-3.1,2.8h6.2
			C56.2,25.9,55.4,24.3,53.2,24.3z"/>
		<path fill="#FFFFFF" d="M62.1,31.4v-6.5h-2.1V22h2.1v-3.4h3.3V22H68v2.9h-2.5v5.7c0,0.8,0.4,1.4,1.1,1.4c0.5,0,1-0.2,1.1-0.4
			l0.7,2.5c-0.5,0.4-1.4,0.8-2.8,0.8C63.4,34.8,62.1,33.6,62.1,31.4z"/>
	</g>
	<g>
		<path fill="#FFFFFF" d="M72.1,34.5V17.2h3.7v17.3H72.1z"/>
		<path fill="#FFFFFF" d="M87.2,34.5v-7.6c0-1.7-0.9-2.3-2.3-2.3c-1.3,0-2.3,0.7-2.9,1.5v8.4h-3.3V22H82v1.6c0.8-1,2.3-1.9,4.4-1.9
			c2.8,0,4.1,1.6,4.1,4v8.8H87.2z"/>
		<path fill="#FFFFFF" d="M92.3,32.9l1.4-2.3c0.9,0.9,2.8,1.7,4.3,1.7c1.4,0,2.1-0.6,2.1-1.3c0-2.1-7.4-0.4-7.4-5.3
			c0-2.1,1.8-3.9,5.1-3.9c2.1,0,3.8,0.7,5.1,1.7l-1.3,2.3c-0.8-0.8-2.2-1.5-3.7-1.5c-1.2,0-2,0.5-2,1.2c0,1.9,7.4,0.3,7.4,5.4
			c0,2.3-1.9,4-5.4,4C95.7,34.8,93.6,34.1,92.3,32.9z"/>
		<path fill="#FFFFFF" d="M113.8,34.5v-1.6c-0.9,1-2.4,1.9-4.4,1.9c-2.8,0-4-1.5-4-3.9V22h3.3v7.6c0,1.7,0.9,2.3,2.3,2.3
			c1.3,0,2.3-0.7,2.9-1.4V22h3.3v12.5H113.8z"/>
		<path fill="#FFFFFF" d="M120,34.5V22h3.3v1.7c0.9-1.1,2.4-2,4-2v3.2c-0.2-0.1-0.5-0.1-0.9-0.1c-1.1,0-2.5,0.6-3.1,1.4v8.3H120z"/>
		<path fill="#FFFFFF" d="M128.1,28.2c0-3.6,2.7-6.6,6.5-6.6c3.7,0,6.3,2.8,6.3,6.9v0.7h-9.3c0.2,1.6,1.5,2.9,3.6,2.9
			c1.1,0,2.5-0.5,3.3-1.2l1.5,2.1c-1.2,1.1-3.2,1.7-5.2,1.7C131,34.8,128.1,32.2,128.1,28.2z M134.6,24.3c-2.1,0-2.9,1.5-3.1,2.8
			h6.2C137.6,25.9,136.8,24.3,134.6,24.3z"/>
		<path fill="#FFFFFF" d="M151.5,34.5v-1.6c-1,1.2-2.4,1.9-3.9,1.9c-3.2,0-5.6-2.4-5.6-6.6c0-4.1,2.4-6.6,5.6-6.6
			c1.5,0,2.9,0.6,3.9,1.9v-6.4h3.3v17.3H151.5z M151.5,30.5V26c-0.5-0.8-1.7-1.4-2.9-1.4c-1.9,0-3.2,1.5-3.2,3.7
			c0,2.2,1.3,3.6,3.2,3.6C149.8,31.9,151,31.3,151.5,30.5z"/>
	</g>
</g>
</svg>
