<?xml version="1.0" encoding="utf-8"?>
<!-- Generator: Adobe Illustrator 18.1.1, SVG Export Plug-In . SVG Version: 6.00 Build 0)  -->
<svg version="1.1" id="Layer_1" xmlns="http://www.w3.org/2000/svg" xmlns:xlink="http://www.w3.org/1999/xlink" x="0px" y="0px"
	 viewBox="0 0 487.1 29.9" enable-background="new 0 0 487.1 29.9" xml:space="preserve">
<g>
	<g>
		<path fill="#FFFFFF" d="M0,0.6h7.2c3.1,0,5.7,0,8.4,2.3c1.9,1.7,2.7,3.9,2.7,6.6c0,2.7-0.9,4.9-2.7,6.6c-2.7,2.3-5.4,2.3-8.4,2.3
			H5.3v10.9H0V0.6z M5.3,13.4H7c2.3,0,6-0.2,6-3.9c0-3.8-3.6-3.9-5.8-3.9H5.3V13.4z"/>
		<path fill="#FFFFFF" d="M62.4,0c8.2,0,15,6.5,15,15c0,8.2-6.8,14.9-15,14.9c-8.3,0-15-6.6-15-14.9C47.4,6.5,54.3,0,62.4,0z
			 M62.4,24.9c5.5,0,9.7-4.6,9.7-9.9c0-5.5-4.3-10-9.7-10c-5.4,0-9.7,4.5-9.7,10C52.7,20.3,57,24.9,62.4,24.9z"/>
		<path fill="#FFFFFF" d="M108.7,0.6h7.2c3.1,0,5.7,0,8.4,2.3c1.9,1.7,2.7,3.9,2.7,6.6c0,2.7-0.9,4.9-2.7,6.6
			c-2.7,2.3-5.4,2.3-8.4,2.3H114v10.9h-5.3V0.6z M114,13.4h1.7c2.3,0,6-0.2,6-3.9c0-3.8-3.6-3.9-5.8-3.9H114V13.4z"/>
		<path fill="#FFFFFF" d="M161.5,0.6h5.3v28.7h-5.3V0.6z"/>
		<path fill="#FFFFFF" d="M182.4,0.6h6.1l11.9,20.9h0.1V0.6h5.3v28.7h-5.9l-12-20.9h-0.1v20.9h-5.3V0.6z"/>
		<path fill="#FFFFFF" d="M224,5.6h-5.3v-5h16v5h-5.4v23.8H224V5.6z"/>
		<path fill="#FFFFFF" d="M247.3,0.6h15.5v5h-10.1v7h9.7v5h-9.7v6.8h10.1v5h-15.5V0.6z"/>
		<path fill="#FFFFFF" d="M277.7,0.6h8.8c3.3,0,5.4,0.6,7,1.9c1.6,1.3,3.4,3.6,3.4,6.9c0,1.9-0.7,4.9-2.8,6.9
			c-1.7,1.6-3.3,2-4.8,2.4l7.8,10.6h-6.4l-7.6-11H283v11h-5.3V0.6z M283,14.3h3.4c4.4,0,5.1-2.9,5.1-4.4c0-1.6-1-4.3-5.1-4.3H283
			V14.3z"/>
		<path fill="#FFFFFF" d="M320,0.6h4.2l12,28.7h-5.9l-3.1-7.4H317l-3.1,7.4h-5.9L320,0.6z M318.8,16.9h6.6l-3.3-8.8H322L318.8,16.9z
			"/>
		<path fill="#FFFFFF" d="M375,21.3c-2.3,5.3-7.8,8.6-13.3,8.6c-8.3,0-15-6.9-15-15.1c0-7.9,6.6-14.8,14.9-14.8
			c4.8,0,10.8,2.5,13.5,8.8h-6.1c-2.1-2.4-4.5-3.8-7.7-3.8c-4.7,0-9.4,4.2-9.4,9.9c0,5.4,4.5,10,9.6,10c3.8,0,5.9-2.3,7.2-3.6H375z"
			/>
		<path fill="#FFFFFF" d="M390.2,5.6h-5.3v-5h16v5h-5.4v23.8h-5.3V5.6z"/>
		<path fill="#FFFFFF" d="M413.8,0.6h5.3v28.7h-5.3V0.6z"/>
		<path fill="#FFFFFF" d="M432.3,0.6h5.6l7.7,21.9h0.1l7.7-21.9h5.6l-11.1,28.7h-4.3L432.3,0.6z"/>
		<path fill="#FFFFFF" d="M471.6,0.6h15.5v5H477v7h9.7v5H477v6.8h10.1v5h-15.5V0.6z"/>
	</g>
	<path fill="#FFFFFF" d="M38.4,17.1c0,3.1-2.5,5.6-5.6,5.6c-3.1,0-5.6-2.5-5.6-5.6c0-3.1,2.5-5.6,5.6-5.6
		C35.9,11.5,38.4,14,38.4,17.1z"/>
	<path fill="#FFFFFF" d="M97.6,16.8c0,3.1-2.5,5.6-5.6,5.6c-3.1,0-5.6-2.5-5.6-5.6c0-3.1,2.5-5.6,5.6-5.6
		C95.1,11.2,97.6,13.7,97.6,16.8z"/>
</g>
</svg>
