<?xml version="1.0" standalone="no"?>
<!DOCTYPE svg PUBLIC "-//W3C//DTD SVG 1.1//EN" "http://www.w3.org/Graphics/SVG/1.1/DTD/svg11.dtd">
<svg width="128px" height="84px" version="1.1" xmlns="http://www.w3.org/2000/svg" xmlns:xlink="http://www.w3.org/1999/xlink" xml:space="preserve" style="fill-rule:evenodd;clip-rule:evenodd;">
    <g>
        <g id="Layer1">
            <g>
                <path d="M63.7391,83.7498L127.618,0.976379L0.159524,0.976379L63.7391,83.7498Z" style="fill:rgb(94,45,145);fill-rule:nonzero;"/>
            </g>
            <g>
                <path d="M64.077,52.45C75.3192,52.45 84.4344,43.3348 84.4344,32.0916C84.4344,20.8484 75.3192,11.7342 64.077,11.7342C52.8329,11.7342 43.7196,20.8484 43.7196,32.0916C43.7196,43.3348 52.8329,52.45 64.077,52.45Z" style="fill:rgb(237,27,45);fill-rule:nonzero;stroke-width:0.25px;stroke:rgb(237,27,45);"/>
            </g>
            <g>
                <path d="M34.6864,20.5828L28.6883,20.5828L28.6883,20.5076L20.2899,20.5076L20.2899,43.6004L28.6883,43.6004L28.6883,36.7781L34.911,36.7781C34.911,36.7781 41.2098,34.9783 40.9833,28.2303C40.7586,21.4832 34.6864,20.5828 34.6864,20.5828Z" style="fill:rgb(237,27,45);fill-rule:nonzero;stroke-width:0.25px;stroke:rgb(237,27,45);"/>
            </g>
            <g>
                <path d="M102.802,20.5828L96.8036,20.5828L96.8036,20.5076L88.4071,20.5076L88.4071,43.6004L96.8036,43.6004L96.8036,36.7781L103.026,36.7781C103.026,36.7781 109.325,34.9783 109.1,28.2303C108.874,21.4832 102.802,20.5828 102.802,20.5828Z" style="fill:rgb(237,27,45);fill-rule:nonzero;stroke-width:0.25px;stroke:rgb(237,27,45);"/>
            </g>
            <g>
                <path d="" style="fill:none;stroke-width:1px;stroke:rgb(236,0,140);"/>
            </g>
            <g>
                <path d="M90.3583,35.9393C90.4911,35.0359 90.577,34.117 90.618,33.1863L72.661,33.1863L90.3583,35.9393Z" style="fill:rgb(255,226,110);stroke-width:0.25px;stroke:rgb(255,226,110);"/>
            </g>
            <g>
                <path d="M89.1434,40.8563C89.4168,40.075 89.6571,39.2781 89.8583,38.4666L72.5848,35.8504L89.1434,40.8563Z" style="fill:rgb(255,226,110);fill-rule:nonzero;stroke-width:0.25px;stroke:rgb(255,226,110);"/>
            </g>
            <g>
                <path d="M86.8348,45.7752C87.284,45.0291 87.6961,44.2596 88.0711,43.4686L72.6161,38.6063L86.8348,45.7752Z" style="fill:rgb(255,226,110);stroke-width:0.25px;stroke:rgb(255,226,110);"/>
            </g>
            <g>
                <path d="M90.618,30.9002C90.5809,29.9656 90.495,29.0438 90.3622,28.1375L72.6043,30.9002L90.618,30.9002Z" style="fill:rgb(255,226,110);stroke-width:0.25px;stroke:rgb(255,226,110);"/>
            </g>
            <g>
                <path d="M89.868,25.6102C89.6668,24.7938 89.4286,23.9939 89.1532,23.2098L72.5282,28.2361L89.868,25.6102Z" style="fill:rgb(255,226,110);fill-rule:nonzero;stroke-width:0.25px;stroke:rgb(255,226,110);"/>
            </g>
            <g>
                <path d="M88.0848,20.5955C87.7098,19.8006 87.2958,19.0272 86.8446,18.2781L72.5594,25.4793L88.0848,20.5955Z" style="fill:rgb(255,226,110);stroke-width:0.25px;stroke:rgb(255,226,110);"/>
            </g>
            <g>
                <path d="M37.6473,35.9393C37.5145,35.0359 37.4286,34.117 37.3876,33.1863L55.3446,33.1863L37.6473,35.9393Z" style="fill:rgb(255,226,110);stroke-width:0.25px;stroke:rgb(255,226,110);"/>
            </g>
            <g>
                <path d="M38.8622,40.8563C38.5887,40.075 38.3485,39.2781 38.1473,38.4666L55.4208,35.8504L38.8622,40.8563Z" style="fill:rgb(255,226,110);fill-rule:nonzero;stroke-width:0.25px;stroke:rgb(255,226,110);"/>
            </g>
            <g>
                <path d="M41.1708,45.7752C40.7215,45.0291 40.3094,44.2596 39.9344,43.4686L55.3895,38.6063L41.1708,45.7752Z" style="fill:rgb(255,226,110);stroke-width:0.25px;stroke:rgb(255,226,110);"/>
            </g>
            <g>
                <path d="M37.3876,30.9002C37.4247,29.9656 37.5106,29.0438 37.6415,28.1375L55.3993,30.9002L37.3876,30.9002Z" style="fill:rgb(255,226,110);stroke-width:0.25px;stroke:rgb(255,226,110);"/>
            </g>
            <g>
                <path d="M38.1376,25.6102C38.3387,24.7938 38.577,23.9939 38.8504,23.2098L55.4774,28.2361L38.1376,25.6102Z" style="fill:rgb(255,226,110);fill-rule:nonzero;stroke-width:0.25px;stroke:rgb(255,226,110);"/>
            </g>
            <g>
                <path d="M39.9188,20.5955C40.2958,19.8006 40.7098,19.0272 41.161,18.2781L55.4442,25.4793L39.9188,20.5955Z" style="fill:rgb(255,226,110);stroke-width:0.25px;stroke:rgb(255,226,110);"/>
            </g>
            <g>
                <path d="M57.9852,27.6785C57.9852,27.6785 63.7098,24.9207 70.8817,27.6785C71.5126,29.3465 73.4227,32.2566 70.8817,38.159" style="fill:rgb(255,226,110);fill-rule:nonzero;stroke-width:0.24px;stroke:rgb(255,226,110);"/>
            </g>
            <g>
                <path d="M70.9168,38.0857C70.9168,38.0857 65.1922,40.8436 58.0204,38.0857C57.3895,36.4168 55.4774,33.5086 58.0204,27.6053" style="fill:rgb(255,226,110);fill-rule:nonzero;stroke-width:0.24px;stroke:rgb(255,226,110);"/>
            </g>
            <g>
                <path d="M45.1447,51.345L48.1467,48.2736L48.5532,48.6708L45.5511,51.7423L45.1447,51.345Z" style="fill:rgb(255,226,110);fill-rule:nonzero;"/>
                <path d="M45.1447,51.345L48.1467,48.2736L48.5532,48.6708L45.5511,51.7423L45.1447,51.345Z" style="fill:none;stroke-width:0.24px;stroke:rgb(255,226,110);"/>
            </g>
            <g>
                <path d="M46.6397,52.7873L49.1948,49.3352L49.6634,49.682L49.4705,53.7345L51.4766,51.0241L51.9146,51.3482L49.3595,54.8004L48.8909,54.4536L49.0855,50.3988L47.0777,53.1115L46.6397,52.7873Z" style="fill:rgb(255,226,110);fill-rule:nonzero;"/>
                <path d="M46.6397,52.7873L49.1948,49.3352L49.6634,49.682L49.4705,53.7345L51.4766,51.0241L51.9146,51.3482L49.3595,54.8004L48.8909,54.4536L49.0855,50.3988L47.0777,53.1115L46.6397,52.7873Z" style="fill:none;stroke-width:0.24px;stroke:rgb(255,226,110);"/>
            </g>
            <g>
                <path d="M52.0114,56.2685L53.7453,52.9006L52.4873,52.2529L52.7193,51.8023L55.746,53.3606L55.514,53.8112L54.2507,53.1608L52.5167,56.5287L52.0114,56.2685Z" style="fill:rgb(255,226,110);fill-rule:nonzero;"/>
                <path d="M52.0114,56.2685L53.7453,52.9006L52.4873,52.2529L52.7193,51.8023L55.746,53.3606L55.514,53.8112L54.2507,53.1608L52.5167,56.5287L52.0114,56.2685Z" style="fill:none;stroke-width:0.24px;stroke:rgb(255,226,110);"/>
            </g>
            <g>
                <path d="M54.0946,57.2303L55.5171,53.1777L58.4473,54.2063L58.2795,54.6845L55.8856,53.8442L55.4499,55.0854L57.6918,55.8723L57.5249,56.3478L55.283,55.5609L54.7988,56.9403L57.2867,57.8136L57.1188,58.2918L54.0946,57.2303Z" style="fill:rgb(255,226,110);fill-rule:nonzero;"/>
                <path d="M54.0946,57.2303L55.5171,53.1777L58.4473,54.2063L58.2795,54.6845L55.8856,53.8442L55.4499,55.0854L57.6918,55.8723L57.5249,56.3478L55.283,55.5609L54.7988,56.9403L57.2867,57.8136L57.1188,58.2918L54.0946,57.2303Z" style="fill:none;stroke-width:0.24px;stroke:rgb(255,226,110);"/>
            </g>
            <g>
                <path d="M57.9969,58.4628L58.7532,54.235L60.6277,54.5703C61.0045,54.6377 61.2842,54.7269 61.4667,54.8379C61.6492,54.949 61.782,55.1111 61.8648,55.3243C61.9477,55.5376 61.9684,55.7605 61.9267,55.9931C61.8731,56.2931 61.7308,56.5285 61.4998,56.6995C61.2688,56.8705 60.9455,56.9476 60.5299,56.9307C60.6652,57.0284 60.7651,57.1187 60.8296,57.2016C60.9662,57.3808 61.0874,57.596 61.1933,57.8471L61.7229,59.1293L61.0192,59.0034L60.6171,58.0237C60.4991,57.7407 60.3992,57.5225 60.3175,57.369C60.2359,57.2155 60.158,57.1043 60.084,57.0355C60.01,56.9667 59.9317,56.914 59.8489,56.8774C59.7879,56.8526 59.6853,56.8273 59.5411,56.8015L58.8922,56.6854L58.5564,58.5628L57.9969,58.4628ZM58.9789,56.2009L60.1815,56.416C60.4372,56.4618 60.6418,56.4711 60.7955,56.444C60.9491,56.417 61.0739,56.352 61.1697,56.2491C61.2654,56.1462 61.3255,56.0265 61.35,55.89C61.3857,55.69 61.3426,55.5126 61.2204,55.3579C61.0983,55.2031 60.8806,55.0977 60.5672,55.0416L59.2291,54.8022L58.9789,56.2009Z" style="fill:rgb(255,226,110);fill-rule:nonzero;"/>
                <path d="M57.9969,58.4628L58.7532,54.235L60.6277,54.5703C61.0045,54.6377 61.2842,54.7269 61.4667,54.8379C61.6492,54.949 61.782,55.1111 61.8648,55.3243C61.9477,55.5376 61.9684,55.7605 61.9267,55.9931C61.8731,56.2931 61.7308,56.5285 61.4998,56.6995C61.2688,56.8705 60.9455,56.9476 60.5299,56.9307C60.6652,57.0284 60.7651,57.1187 60.8296,57.2016C60.9662,57.3808 61.0874,57.596 61.1933,57.8471L61.7229,59.1293L61.0192,59.0034L60.6171,58.0237C60.4991,57.7407 60.3992,57.5225 60.3175,57.369C60.2359,57.2155 60.158,57.1043 60.084,57.0355C60.01,56.9667 59.9317,56.914 59.8489,56.8774C59.7879,56.8526 59.6853,56.8273 59.5411,56.8015L58.8922,56.6854L58.5564,58.5628L57.9969,58.4628ZM58.9789,56.2009L60.1815,56.416C60.4372,56.4618 60.6418,56.4711 60.7955,56.444C60.9491,56.417 61.0739,56.352 61.1697,56.2491C61.2654,56.1462 61.3255,56.0265 61.35,55.89C61.3857,55.69 61.3426,55.5126 61.2204,55.3579C61.0983,55.2031 60.8806,55.0977 60.5672,55.0416L59.2291,54.8022L58.9789,56.2009Z" style="fill:none;stroke-width:0.24px;stroke:rgb(255,226,110);"/>
            </g>
            <g>
                <path d="M62.0799,59.1395L63.6995,54.8333L64.3118,54.829L66.0994,59.1116L65.4519,59.1161L64.9419,57.8188L63.1461,57.8313L62.6834,59.1353L62.0799,59.1395ZM63.3069,57.3673L64.7629,57.3572L64.3064,56.1709C64.1672,55.8105 64.0636,55.5143 63.9956,55.2824C63.9428,55.5581 63.8676,55.8321 63.7698,56.1043L63.3069,57.3673Z" style="fill:rgb(255,226,110);fill-rule:nonzero;"/>
                <path d="M62.0799,59.1395L63.6995,54.8333L64.3118,54.829L66.0994,59.1116L65.4519,59.1161L64.9419,57.8188L63.1461,57.8313L62.6834,59.1353L62.0799,59.1395ZM63.3069,57.3673L64.7629,57.3572L64.3064,56.1709C64.1672,55.8105 64.0636,55.5143 63.9956,55.2824C63.9428,55.5581 63.8676,55.8321 63.7698,56.1043L63.3069,57.3673Z" style="fill:none;stroke-width:0.24px;stroke:rgb(255,226,110);"/>
            </g>
            <g>
                <path d="M70.6479,56.7989L71.2338,56.8179C71.2169,57.2994 71.0834,57.6929 70.8332,57.9984C70.5831,58.3039 70.2395,58.5043 69.8025,58.5997C69.3503,58.6984 68.9624,58.6866 68.6388,58.5643C68.3152,58.442 68.0414,58.2224 67.8173,57.9055C67.5932,57.5885 67.4374,57.2297 67.35,56.829C67.2546,56.392 67.2549,55.9926 67.3508,55.6308C67.4468,55.2691 67.6304,54.9701 67.9017,54.734C68.173,54.4978 68.4938,54.3393 68.864,54.2586C69.2838,54.1669 69.6601,54.1967 69.993,54.348C70.3259,54.4992 70.5909,54.7562 70.788,55.119L70.2694,55.3672C70.1055,55.0831 69.9158,54.8916 69.7003,54.7927C69.4848,54.6938 69.2368,54.675 68.9562,54.7362C68.6338,54.8066 68.3811,54.9427 68.1983,55.1445C68.0154,55.3464 67.9085,55.5871 67.8776,55.8667C67.8467,56.1463 67.8614,56.4245 67.9218,56.7012C67.9997,57.058 68.1197,57.3582 68.2818,57.6017C68.4439,57.8452 68.649,58.0088 68.8972,58.0926C69.1454,58.1763 69.3973,58.1903 69.653,58.1345C69.964,58.0666 70.2078,57.9195 70.3843,57.693C70.5607,57.4666 70.6486,57.1685 70.6479,56.7989Z" style="fill:rgb(255,226,110);fill-rule:nonzero;"/>
                <path d="M70.6479,56.7989L71.2338,56.8179C71.2169,57.2994 71.0834,57.6929 70.8332,57.9984C70.5831,58.3039 70.2395,58.5043 69.8025,58.5997C69.3503,58.6984 68.9624,58.6866 68.6388,58.5643C68.3152,58.442 68.0414,58.2224 67.8173,57.9055C67.5932,57.5885 67.4374,57.2297 67.35,56.829C67.2546,56.392 67.2549,55.9926 67.3508,55.6308C67.4468,55.2691 67.6304,54.9701 67.9017,54.734C68.173,54.4978 68.4938,54.3393 68.864,54.2586C69.2838,54.1669 69.6601,54.1967 69.993,54.348C70.3259,54.4992 70.5909,54.7562 70.788,55.119L70.2694,55.3672C70.1055,55.0831 69.9158,54.8916 69.7003,54.7927C69.4848,54.6938 69.2368,54.675 68.9562,54.7362C68.6338,54.8066 68.3811,54.9427 68.1983,55.1445C68.0154,55.3464 67.9085,55.5871 67.8776,55.8667C67.8467,56.1463 67.8614,56.4245 67.9218,56.7012C67.9997,57.058 68.1197,57.3582 68.2818,57.6017C68.4439,57.8452 68.649,58.0088 68.8972,58.0926C69.1454,58.1763 69.3973,58.1903 69.653,58.1345C69.964,58.0666 70.2078,57.9195 70.3843,57.693C70.5607,57.4666 70.6486,57.1685 70.6479,56.7989Z" style="fill:none;stroke-width:0.24px;stroke:rgb(255,226,110);"/>
            </g>
            <g>
                <path d="M74.5593,57.0342L73.1307,53.5259L71.8202,54.0595L71.6291,53.5901L74.782,52.3063L74.9731,52.7757L73.6571,53.3115L75.0857,56.8199L74.5593,57.0342Z" style="fill:rgb(255,226,110);fill-rule:nonzero;"/>
                <path d="M74.5593,57.0342L73.1307,53.5259L71.8202,54.0595L71.6291,53.5901L74.782,52.3063L74.9731,52.7757L73.6571,53.3115L75.0857,56.8199L74.5593,57.0342Z" style="fill:none;stroke-width:0.24px;stroke:rgb(255,226,110);"/>
            </g>
            <g>
                <path d="M76.6152,56.0656L74.6091,52.268L75.1117,52.0025L77.1178,55.8001L76.6152,56.0656Z" style="fill:rgb(255,226,110);fill-rule:nonzero;"/>
                <path d="M76.6152,56.0656L74.6091,52.268L75.1117,52.0025L77.1178,55.8001L76.6152,56.0656Z" style="fill:none;stroke-width:0.24px;stroke:rgb(255,226,110);"/>
            </g>
            <g>
                <path d="M79.436,54.369L75.5894,51.8354L76.0906,51.4786L78.8095,53.3729C79.0277,53.5244 79.2249,53.6717 79.4011,53.8148C79.3192,53.5854 79.2461,53.3497 79.1818,53.1078L78.3172,49.8932L78.7898,49.5568L79.9109,54.0308L79.436,54.369Z" style="fill:rgb(255,226,110);fill-rule:nonzero;"/>
                <path d="M79.436,54.369L75.5894,51.8354L76.0906,51.4786L78.8095,53.3729C79.0277,53.5244 79.2249,53.6717 79.4011,53.8148C79.3192,53.5854 79.2461,53.3497 79.1818,53.1078L78.3172,49.8932L78.7898,49.5568L79.9109,54.0308L79.436,54.369Z" style="fill:none;stroke-width:0.24px;stroke:rgb(255,226,110);"/>
            </g>
            <g>
                <path d="M82.4848,51.9542L79.4388,48.9264L81.6281,46.7239L81.9875,47.0812L80.1989,48.8806L81.1319,49.808L82.8069,48.1229L83.1643,48.4781L81.4892,50.1632L82.5261,51.1938L84.3849,49.3238L84.7444,49.6811L82.4848,51.9542Z" style="fill:rgb(255,226,110);fill-rule:nonzero;"/>
                <path d="M82.4848,51.9542L79.4388,48.9264L81.6281,46.7239L81.9875,47.0812L80.1989,48.8806L81.1319,49.808L82.8069,48.1229L83.1643,48.4781L81.4892,50.1632L82.5261,51.1938L84.3849,49.3238L84.7444,49.6811L82.4848,51.9542Z" style="fill:none;stroke-width:0.24px;stroke:rgb(255,226,110);"/>
            </g>
        </g>
    </g>
</svg>
